<svg xmlns="http://www.w3.org/2000/svg" viewBox="0 0 720 380" width="720" height="380" font-family="system-ui, -apple-system, Segoe UI, sans-serif">
<rect width="720" height="380" fill="#ffffff"/>
<text x="62" y="22" font-size="14" font-weight="600" fill="#222222">Steinpilz: Wie gut trennt die Ampel bei welchem Optimum?</text>
<text x="62" y="38" font-size="11" fill="#777777">Design B auf den Anpassjahren. 0,50 hieße: kein Unterschied zu einem gewöhnlichen Tag derselben Woche.</text>
<text x="14" y="175.0" font-size="11" fill="#777777" text-anchor="middle" transform="rotate(-90 14 175.0)">B — Anteil geschlagener Kontrolljahre</text>
<text x="382.0" y="342" font-size="11" fill="#777777" text-anchor="middle">Angenommenes Optimum (°C)</text>
<line x1="62" y1="294.3" x2="702" y2="294.3" stroke="#dddddd" stroke-width="1"/>
<text x="54" y="298.3" font-size="11" fill="#777777" text-anchor="end">0,4</text>
<line x1="62" y1="216.6" x2="702" y2="216.6" stroke="#dddddd" stroke-width="1"/>
<text x="54" y="220.6" font-size="11" fill="#777777" text-anchor="end">0,5</text>
<line x1="62" y1="138.9" x2="702" y2="138.9" stroke="#dddddd" stroke-width="1"/>
<text x="54" y="142.9" font-size="11" fill="#777777" text-anchor="end">0,6</text>
<line x1="62" y1="61.2" x2="702" y2="61.2" stroke="#dddddd" stroke-width="1"/>
<text x="54" y="65.2" font-size="11" fill="#777777" text-anchor="end">0,7</text>
<text x="62.0" y="323" font-size="11" fill="#777777" text-anchor="middle">5</text>
<text x="222.0" y="323" font-size="11" fill="#777777" text-anchor="middle">10</text>
<text x="382.0" y="323" font-size="11" fill="#777777" text-anchor="middle">15</text>
<text x="542.0" y="323" font-size="11" fill="#777777" text-anchor="middle">20</text>
<text x="702.0" y="323" font-size="11" fill="#777777" text-anchor="middle">25</text>
<line x1="62" y1="306" x2="702" y2="306" stroke="#444444" stroke-width="1.4"/>
<rect x="286.0" y="44.0" width="72.0" height="262.0" fill="#1565c0" fill-opacity="0.1"/>
<path d="M62.0,120.4 L70.0,120.1 L78.0,120.3 L86.0,119.8 L94.0,118.8 L102.0,118.1 L110.0,117.5 L118.0,118.5 L126.0,117.7 L134.0,116.3 L142.0,115.9 L150.0,116.7 L158.0,114.9 L166.0,114.9 L174.0,115.7 L182.0,113.7 L190.0,113.9 L198.0,112.3 L206.0,110.0 L214.0,109.2 L222.0,110.1 L230.0,109.6 L238.0,107.5 L246.0,107.2 L254.0,107.5 L262.0,106.5 L270.0,107.2 L278.0,107.4 L286.0,104.4 L294.0,102.6 L302.0,104.4 L310.0,103.9 L318.0,102.5 L326.0,101.3 L334.0,101.5 L342.0,103.3 L350.0,102.6 L358.0,105.1 L366.0,106.5 L374.0,109.8 L382.0,109.8 L390.0,111.9 L398.0,115.5 L406.0,118.9 L414.0,124.4 L422.0,128.8 L430.0,131.2 L438.0,134.9 L446.0,137.1 L454.0,142.0 L462.0,143.5 L470.0,149.4 L478.0,156.4 L486.0,161.1 L494.0,167.0 L502.0,172.7 L510.0,178.9 L518.0,187.4 L526.0,192.0 L534.0,197.2 L542.0,200.2 L550.0,203.9 L558.0,207.7 L566.0,212.3 L574.0,216.9 L582.0,220.6 L590.0,225.8 L598.0,231.1 L606.0,233.4 L614.0,239.1 L622.0,241.2 L630.0,246.4 L638.0,250.2 L646.0,253.6 L654.0,255.6 L662.0,257.1 L670.0,258.7 L678.0,262.3 L686.0,263.8 L694.0,264.9 L702.0,265.1" fill="none" stroke="#1565c0" stroke-width="2.6" stroke-linejoin="round"/>
<path d="M62.0,216.6 L702.0,216.6" fill="none" stroke="#777777" stroke-width="1.4" stroke-linejoin="round" stroke-dasharray="6 4"/>
<line x1="318.0" y1="306.0" x2="318.0" y2="44.0" stroke="#c62828" stroke-width="1.8" stroke-dasharray="5 3"/>
<text x="323.0" y="56" font-size="11" fill="#c62828" text-anchor="start">ausgeliefert: 13 °C</text>
<line x1="326.0" y1="306.0" x2="326.0" y2="44.0" stroke="#ef6c00" stroke-width="1.8" stroke-dasharray="5 3"/>
<text x="331.0" y="70" font-size="11" fill="#ef6c00" text-anchor="start">bestes: 13,25 °C</text>
<rect x="62" y="359" width="16" height="10" fill="#1565c0" fill-opacity="0.75"/>
<text x="83" y="368" font-size="11" fill="#222222">Plateau (weniger als 0,005 unter dem Gipfel)</text>
<line x1="378.4" y1="364" x2="394.4" y2="364" stroke="#1565c0" stroke-width="2.4"/>
<text x="399.4" y="368" font-size="11" fill="#222222">B</text>
<line x1="411.0" y1="364" x2="427.0" y2="364" stroke="#777777" stroke-width="2.4"/>
<text x="432.0" y="368" font-size="11" fill="#222222">0,50 — kein Signal</text>
</svg>
