<svg xmlns="http://www.w3.org/2000/svg" width="1024" height="1024" viewBox="0 0 1024 1024">
  <!-- App-Icon: die beiden Buddies im Nah-Ausschnitt (Faktor 1,9 um die
       Cluster-Mitte). Die Hüte stoßen oben an und werden seitlich leicht
       angeschnitten — dadurch füllen die Pilze das Icon, statt in der
       unteren Hälfte zu sitzen. Der Fundort-Pin hat in diesem Ausschnitt
       keinen Platz mehr; die Buddies tragen das Motiv allein. -->
  <defs>
    <linearGradient id="bg" x1="0" y1="0" x2="0" y2="1">
      <stop offset="0" stop-color="#4CAF50"/>
      <stop offset="1" stop-color="#1B5E20"/>
    </linearGradient>
    <linearGradient id="cap1" x1="0" y1="0" x2="0" y2="1">
      <stop offset="0" stop-color="#8D6E63"/>
      <stop offset="1" stop-color="#5D4037"/>
    </linearGradient>
    <linearGradient id="cap2" x1="0" y1="0" x2="0" y2="1">
      <stop offset="0" stop-color="#EF5350"/>
      <stop offset="1" stop-color="#C62828"/>
    </linearGradient>
  </defs>

  <rect width="1024" height="1024" fill="url(#bg)"/>

  <!-- Wiese -->
  <ellipse cx="512" cy="980" rx="760" ry="150" fill="#388E3C"/>
  <ellipse cx="512" cy="1012" rx="720" ry="124" fill="#66BB6A" opacity="0.65"/>

  <g transform="translate(-458.9 -838.8) scale(1.9)">
    <!-- Buddy 1: Steinpilz (links, groß) -->
    <g>
      <path d="M 310 640 Q 310 875 358 892 Q 382 900 406 892 Q 454 875 454 640 Z" fill="#FFF8E1"/>
      <path d="M 222 648 Q 222 452 382 452 Q 542 452 542 648 Q 462 678 382 678 Q 302 678 222 648 Z" fill="url(#cap1)"/>
      <ellipse cx="330" cy="520" rx="52" ry="26" fill="#A1887F" opacity="0.75" transform="rotate(-18 330 520)"/>
      <!-- Gesicht -->
      <circle cx="356" cy="742" r="11" fill="#3E2723"/>
      <circle cx="410" cy="742" r="11" fill="#3E2723"/>
      <path d="M 350 778 Q 383 804 416 778" stroke="#3E2723" stroke-width="9" stroke-linecap="round" fill="none"/>
      <circle cx="336" cy="768" r="9" fill="#F8BBD0" opacity="0.85"/>
      <circle cx="430" cy="768" r="9" fill="#F8BBD0" opacity="0.85"/>
    </g>
    <!-- Buddy 2: Fliegenpilz (rechts, klein) -->
    <g>
      <path d="M 618 730 Q 618 892 656 906 Q 676 913 696 906 Q 734 892 734 730 Z" fill="#FFFDE7"/>
      <path d="M 552 738 Q 552 576 676 576 Q 800 576 800 738 Q 738 764 676 764 Q 614 764 552 738 Z" fill="url(#cap2)"/>
      <circle cx="612" cy="660" r="17" fill="#FFFFFF"/>
      <circle cx="676" cy="616" r="14" fill="#FFFFFF"/>
      <circle cx="742" cy="668" r="15" fill="#FFFFFF"/>
      <circle cx="668" cy="712" r="10" fill="#FFFFFF"/>
      <!-- Gesicht -->
      <circle cx="654" cy="800" r="9" fill="#3E2723"/>
      <circle cx="698" cy="800" r="9" fill="#3E2723"/>
      <path d="M 650 828 Q 676 848 702 828" stroke="#3E2723" stroke-width="8" stroke-linecap="round" fill="none"/>
      <circle cx="638" cy="820" r="7" fill="#F8BBD0" opacity="0.85"/>
      <circle cx="714" cy="820" r="7" fill="#F8BBD0" opacity="0.85"/>
    </g>
  </g>
</svg>
